# xmcd
#
# Track frame offsets: 
#        150
#        33940
#        61507
#        91292
#        116430
#        143522
#        178222
#        205222
#        232445
#        259240
#
# Disc length: 4054 seconds
#
# Revision: 3
# Processed by: cddbd v1.5.2PL0 Copyright (c) Steve Scherf et al.
# Submitted via: ExactAudioCopy v1.0b1
#
DISCID=880fd40a
DTITLE=Various Artist - SUPER EUROBEAT VOL.9
DYEAR=1990
DGENRE=Eurobeat
TTITLE0=JOHNY BOMB! - BOOM BOOM BODY TALK
TTITLE1=BIG BROTHER - WILD REPUTATION
TTITLE2=GINA - RUSH
TTITLE3=NORMA SHEFFIELD - YOUR BODY LIES
TTITLE4=ROBERT STONE - POCKET TIME
TTITLE5=LESLIE - I WANT YOUR LOVE
TTITLE6=CLAUDIA T - WATCH ME
TTITLE7=NORMA SHEFFIELD - YOUR BODY LIES (HI-BPM POWER REMIX)
TTITLE8=TRISHA - EVERYTIME YOU WANT
TTITLE9=Various Artist - HI-BPM SPECIAL MEGA-MIX
EXTD=
EXTT0=
EXTT1=
EXTT2=
EXTT3=
EXTT4=
EXTT5=
EXTT6=
EXTT7=
EXTT8=
EXTT9=
PLAYORDER=
